<?xml version="1.0" standalone="no"?>
 <!DOCTYPE svg PUBLIC "-//W3C//DTD SVG 1.1//EN" 
 "http://www.w3.org/Graphics/SVG/1.1/DTD/svg11.dtd"> 
<svg xmlns="http://www.w3.org/2000/svg" version="1.1" 
    width="27.94cm" height="21.59cm" viewBox="0 0 109999 84999 ">
<title>SVG Picture created as pcb.sch.svg date 2015/05/19 10:25:12 </title>
  <desc>Picture generated by Eeschema-SVG </desc>
<g style="fill:#000000; fill-opacity:1;stroke:#000000; stroke-opacity:1;
stroke-linecap:round; stroke-linejoin:round; "
 transform="translate(0 0) scale(1 1)">
</g>
<g style="fill:#000000; fill-opacity:0.0; 
stroke:#000000; stroke-width:0; stroke-opacity:1; 
stroke-linecap:round; stroke-linejoin:round;">
</g>
<g style="fill:#840000; fill-opacity:0.0; 
stroke:#840000; stroke-width:90; stroke-opacity:1; 
stroke-linecap:round; stroke-linejoin:round;">
<circle cx="50000" cy="30000" r="250" /> 
<circle cx="50000" cy="29000" r="250" /> 
<circle cx="50000" cy="28000" r="250" /> 
<circle cx="50000" cy="27000" r="250" /> 
<circle cx="50000" cy="26000" r="250" /> 
<circle cx="50000" cy="25000" r="250" /> 
<circle cx="51000" cy="30000" r="250" /> 
<circle cx="51000" cy="29000" r="250" /> 
<circle cx="51000" cy="28000" r="250" /> 
<circle cx="51000" cy="27000" r="250" /> 
<circle cx="51000" cy="26000" r="250" /> 
<circle cx="51000" cy="25000" r="250" /> 
</g>
<g style="fill:#840000; fill-opacity:0.0; 
stroke:#840000; stroke-width:120; stroke-opacity:1; 
stroke-linecap:round; stroke-linejoin:round;">
<rect x="49250" y="24250" width="2500" height="6500" rx="0" />
</g>
<g style="fill:#840000; fill-opacity:0.0; 
stroke:#840000; stroke-width:90; stroke-opacity:1; 
stroke-linecap:round; stroke-linejoin:round;">
<polyline fill="none;"
points="51400,27500
49400,27500
49800,27700
49800,27300
49400,27500
" /> 
</g>
<g style="fill:#840000; fill-opacity:1.0; 
stroke:#840000; stroke-width:60; stroke-opacity:1; 
stroke-linecap:round; stroke-linejoin:round;">
<polyline style="fill-rule:evenodd;"
points="49400,27500
49800,27300
49800,27700
49400,27500
" /> 
</g>
<g style="fill:#840000; fill-opacity:0.0; 
stroke:#840000; stroke-width:60; stroke-opacity:1; 
stroke-linecap:round; stroke-linejoin:round;">
<path d="M51750 25000
L53500 25000
" />
<path d="M52330 25480
L52330 25080
L52420 25080
L52480 25100
L52520 25140
L52530 25180
L52550 25250
L52550 25310
L52530 25390
L52520 25420
L52480 25460
L52420 25480
L52330 25480
" />
<path d="M52800 25080
L52840 25080
L52880 25100
L52900 25120
L52920 25160
L52930 25230
L52930 25330
L52920 25400
L52900 25440
L52880 25460
L52840 25480
L52800 25480
L52760 25460
L52740 25440
L52730 25400
L52710 25330
L52710 25230
L52730 25160
L52740 25120
L52760 25100
L52800 25080
" />
<path d="M49250 25000
L47500 25000
" />
<path d="M48080 25480
L48080 25080
L48170 25080
L48230 25100
L48270 25140
L48280 25180
L48300 25250
L48300 25310
L48280 25390
L48270 25420
L48230 25460
L48170 25480
L48080 25480
" />
<path d="M48680 25480
L48460 25480
" />
<path d="M48570 25480
L48570 25080
L48530 25140
L48490 25180
L48460 25200
" />
<path d="M51750 26000
L53500 26000
" />
<path d="M52330 26480
L52330 26080
L52420 26080
L52480 26100
L52520 26140
L52530 26180
L52550 26250
L52550 26310
L52530 26390
L52520 26420
L52480 26460
L52420 26480
L52330 26480
" />
<path d="M52710 26120
L52730 26100
L52760 26080
L52860 26080
L52900 26100
L52920 26120
L52930 26160
L52930 26200
L52920 26250
L52690 26480
L52930 26480
" />
<path d="M49250 26000
L47500 26000
" />
<path d="M48080 26480
L48080 26080
L48170 26080
L48230 26100
L48270 26140
L48280 26180
L48300 26250
L48300 26310
L48280 26390
L48270 26420
L48230 26460
L48170 26480
L48080 26480
" />
<path d="M48440 26080
L48680 26080
L48550 26230
L48610 26230
L48650 26250
L48670 26270
L48680 26310
L48680 26400
L48670 26440
L48650 26460
L48610 26480
L48490 26480
L48460 26460
L48440 26440
" />
<path d="M51750 27000
L53500 27000
" />
<path d="M52330 27480
L52330 27080
L52420 27080
L52480 27100
L52520 27140
L52530 27180
L52550 27250
L52550 27310
L52530 27390
L52520 27420
L52480 27460
L52420 27480
L52330 27480
" />
<path d="M52900 27210
L52900 27480
" />
<path d="M52800 27060
L52710 27350
L52950 27350
" />
<path d="M49250 27000
L47500 27000
" />
<path d="M48080 27480
L48080 27080
L48170 27080
L48230 27100
L48270 27140
L48280 27180
L48300 27250
L48300 27310
L48280 27390
L48270 27420
L48230 27460
L48170 27480
L48080 27480
" />
<path d="M48670 27080
L48480 27080
L48460 27270
L48480 27250
L48510 27230
L48610 27230
L48650 27250
L48670 27270
L48680 27310
L48680 27400
L48670 27440
L48650 27460
L48610 27480
L48510 27480
L48480 27460
L48460 27440
" />
<path d="M51750 28000
L53500 28000
" />
<path d="M52330 28480
L52330 28080
L52420 28080
L52480 28100
L52520 28140
L52530 28180
L52550 28250
L52550 28310
L52530 28390
L52520 28420
L52480 28460
L52420 28480
L52330 28480
" />
<path d="M52900 28080
L52820 28080
L52780 28100
L52760 28120
L52730 28180
L52710 28250
L52710 28400
L52730 28440
L52740 28460
L52780 28480
L52860 28480
L52900 28460
L52920 28440
L52930 28400
L52930 28310
L52920 28270
L52900 28250
L52860 28230
L52780 28230
L52740 28250
L52730 28270
L52710 28310
" />
<path d="M49250 28000
L47500 28000
" />
<path d="M48080 28480
L48080 28080
L48170 28080
L48230 28100
L48270 28140
L48280 28180
L48300 28250
L48300 28310
L48280 28390
L48270 28420
L48230 28460
L48170 28480
L48080 28480
" />
<path d="M48440 28080
L48700 28080
L48530 28480
" />
<path d="M51750 30000
L53500 30000
" />
<path d="M52090 30080
L52220 30480
L52350 30080
" />
<path d="M52710 30440
L52690 30460
L52640 30480
L52600 30480
L52540 30460
L52500 30420
L52490 30390
L52470 30310
L52470 30250
L52490 30180
L52500 30140
L52540 30100
L52600 30080
L52640 30080
L52690 30100
L52710 30120
" />
<path d="M53110 30440
L53090 30460
L53040 30480
L53000 30480
L52940 30460
L52900 30420
L52890 30390
L52870 30310
L52870 30250
L52890 30180
L52900 30140
L52940 30100
L53000 30080
L53040 30080
L53090 30100
L53110 30120
" />
<path d="M51750 29000
L53500 29000
" />
<path d="M52310 29100
L52280 29080
L52220 29080
L52160 29100
L52120 29140
L52110 29180
L52090 29250
L52090 29310
L52110 29390
L52120 29420
L52160 29460
L52220 29480
L52260 29480
L52310 29460
L52330 29440
L52330 29310
L52260 29310
" />
<path d="M52510 29480
L52510 29080
L52730 29480
L52730 29080
" />
<path d="M52930 29480
L52930 29080
L53020 29080
L53080 29100
L53120 29140
L53130 29180
L53150 29250
L53150 29310
L53130 29390
L53120 29420
L53080 29460
L53020 29480
L52930 29480
" />
</g>
<g style="fill:#008484; fill-opacity:0.0; 
stroke:#008484; stroke-width:60; stroke-opacity:1; 
stroke-linecap:round; stroke-linejoin:round;">
<path d="M49680 23890
L49750 23920
L49870 23920
L49910 23890
L49940 23870
L49960 23820
L49960 23770
L49940 23730
L49910 23700
L49870 23680
L49770 23650
L49720 23630
L49700 23610
L49680 23560
L49680 23510
L49700 23460
L49720 23440
L49770 23420
L49890 23420
L49960 23440
" />
<path d="M50110 23420
L50390 23420
" />
<path d="M50250 23920
L50250 23420
" />
<path d="M50560 23920
L50560 23420
" />
<path d="M50840 23920
L50630 23630
" />
<path d="M50840 23420
L50560 23700
" />
<path d="M51320 23920
L51040 23920
" />
<path d="M51180 23920
L51180 23420
L51130 23490
L51080 23540
L51040 23560
" />
</g>
<g style="fill:#008484; fill-opacity:0.0; 
stroke:#008484; stroke-width:0; stroke-opacity:1; 
stroke-linecap:round; stroke-linejoin:round;">
</g>
<g style="fill:#0000C1; fill-opacity:0.0; 
stroke:#0000C1; stroke-width:0; stroke-opacity:1; 
stroke-linecap:round; stroke-linejoin:round;">
</g>
<g style="fill:#0000C1; fill-opacity:0.0; 
stroke:#0000C1; stroke-width:100; stroke-opacity:1; 
stroke-linecap:round; stroke-linejoin:round;">
<rect x="91600" y="68750" width="12800" height="4510" rx="0" />
</g>
<g style="fill:#0000C1; fill-opacity:0.0; 
stroke:#0000C1; stroke-width:0; stroke-opacity:1; 
stroke-linecap:round; stroke-linejoin:round;">
</g>
<g style="fill:#0000C1; fill-opacity:0.0; 
stroke:#0000C1; stroke-width:100; stroke-opacity:1; 
stroke-linecap:round; stroke-linejoin:round;">
<rect x="84530" y="68330" width="5940" height="5340" rx="0" />
</g>
<g style="fill:#0000C1; fill-opacity:0.0; 
stroke:#0000C1; stroke-width:0; stroke-opacity:1; 
stroke-linecap:round; stroke-linejoin:round;">
</g>
<g style="fill:#0000C1; fill-opacity:0.0; 
stroke:#0000C1; stroke-width:100; stroke-opacity:1; 
stroke-linecap:round; stroke-linejoin:round;">
<rect x="68190" y="69640" width="15630" height="2730" rx="0" />
</g>
<g style="fill:#0000C1; fill-opacity:0.0; 
stroke:#0000C1; stroke-width:60; stroke-opacity:1; 
stroke-linecap:round; stroke-linejoin:round;">
</g>
<g style="fill:#840000; fill-opacity:0.0; 
stroke:#840000; stroke-width:60; stroke-opacity:1; 
stroke-linecap:round; stroke-linejoin:round;">
<path d="M54320 28700
L54260 28670
L54170 28670
L54090 28700
L54030 28760
L54000 28810
L53970 28930
L53970 29010
L54000 29130
L54030 29190
L54090 29240
L54170 29270
L54230 29270
L54320 29240
L54350 29210
L54350 29010
L54230 29010
" />
<path d="M54600 29270
L54600 28670
L54950 29270
L54950 28670
" />
<path d="M55230 29270
L55230 28670
L55380 28670
L55460 28700
L55520 28760
L55550 28810
L55580 28930
L55580 29010
L55550 29130
L55520 29190
L55460 29240
L55380 29270
L55230 29270
" />
</g>
<g style="fill:#840000; fill-opacity:0.0; 
stroke:#840000; stroke-width:100; stroke-opacity:1; 
stroke-linecap:round; stroke-linejoin:round;">
<polyline fill="none;"
points="53500,29000
53800,29540
55920,29540
55920,29000
55920,28460
53800,28460
53500,29000
" /> 
</g>
<g style="fill:#840000; fill-opacity:0.0; 
stroke:#840000; stroke-width:60; stroke-opacity:1; 
stroke-linecap:round; stroke-linejoin:round;">
<path d="M53920 29670
L54120 30270
L54320 29670
" />
<path d="M54860 30210
L54830 30240
L54740 30270
L54680 30270
L54600 30240
L54540 30190
L54510 30130
L54480 30010
L54480 29930
L54510 29810
L54540 29760
L54600 29700
L54680 29670
L54740 29670
L54830 29700
L54860 29730
" />
<path d="M55460 30210
L55430 30240
L55340 30270
L55280 30270
L55200 30240
L55140 30190
L55110 30130
L55080 30010
L55080 29930
L55110 29810
L55140 29760
L55200 29700
L55280 29670
L55340 29670
L55430 29700
L55460 29730
" />
</g>
<g style="fill:#840000; fill-opacity:0.0; 
stroke:#840000; stroke-width:100; stroke-opacity:1; 
stroke-linecap:round; stroke-linejoin:round;">
<polyline fill="none;"
points="53500,30000
53800,30540
55800,30540
55800,30000
55800,29460
53800,29460
53500,30000
" /> 
</g>
<g style="fill:#840000; fill-opacity:0.0; 
stroke:#840000; stroke-width:60; stroke-opacity:1; 
stroke-linecap:round; stroke-linejoin:round;">
<path d="M54000 25270
L54000 24670
L54150 24670
L54230 24700
L54290 24760
L54320 24810
L54350 24930
L54350 25010
L54320 25130
L54290 25190
L54230 25240
L54150 25270
L54000 25270
" />
<path d="M54720 24670
L54770 24670
L54830 24700
L54860 24730
L54890 24790
L54920 24900
L54920 25040
L54890 25160
L54860 25210
L54830 25240
L54770 25270
L54720 25270
L54660 25240
L54630 25210
L54600 25160
L54570 25040
L54570 24900
L54600 24790
L54630 24730
L54660 24700
L54720 24670
" />
</g>
<g style="fill:#840000; fill-opacity:0.0; 
stroke:#840000; stroke-width:100; stroke-opacity:1; 
stroke-linecap:round; stroke-linejoin:round;">
<polyline fill="none;"
points="53500,25000
53800,25540
55260,25540
55260,25000
55260,24460
53800,24460
53500,25000
" /> 
</g>
<g style="fill:#840000; fill-opacity:0.0; 
stroke:#840000; stroke-width:60; stroke-opacity:1; 
stroke-linecap:round; stroke-linejoin:round;">
<path d="M54000 26270
L54000 25670
L54150 25670
L54230 25700
L54290 25760
L54320 25810
L54350 25930
L54350 26010
L54320 26130
L54290 26190
L54230 26240
L54150 26270
L54000 26270
" />
<path d="M54570 25730
L54600 25700
L54660 25670
L54800 25670
L54860 25700
L54890 25730
L54920 25790
L54920 25840
L54890 25930
L54550 26270
L54920 26270
" />
</g>
<g style="fill:#840000; fill-opacity:0.0; 
stroke:#840000; stroke-width:100; stroke-opacity:1; 
stroke-linecap:round; stroke-linejoin:round;">
<polyline fill="none;"
points="53500,26000
53800,26540
55260,26540
55260,26000
55260,25460
53800,25460
53500,26000
" /> 
</g>
<g style="fill:#840000; fill-opacity:0.0; 
stroke:#840000; stroke-width:60; stroke-opacity:1; 
stroke-linecap:round; stroke-linejoin:round;">
<path d="M54000 27270
L54000 26670
L54150 26670
L54230 26700
L54290 26760
L54320 26810
L54350 26930
L54350 27010
L54320 27130
L54290 27190
L54230 27240
L54150 27270
L54000 27270
" />
<path d="M54860 26870
L54860 27270
" />
<path d="M54720 26640
L54570 27070
L54950 27070
" />
</g>
<g style="fill:#840000; fill-opacity:0.0; 
stroke:#840000; stroke-width:100; stroke-opacity:1; 
stroke-linecap:round; stroke-linejoin:round;">
<polyline fill="none;"
points="53500,27000
53800,27540
55260,27540
55260,27000
55260,26460
53800,26460
53500,27000
" /> 
</g>
<g style="fill:#840000; fill-opacity:0.0; 
stroke:#840000; stroke-width:60; stroke-opacity:1; 
stroke-linecap:round; stroke-linejoin:round;">
<path d="M54000 28270
L54000 27670
L54150 27670
L54230 27700
L54290 27760
L54320 27810
L54350 27930
L54350 28010
L54320 28130
L54290 28190
L54230 28240
L54150 28270
L54000 28270
" />
<path d="M54860 27670
L54750 27670
L54690 27700
L54660 27730
L54600 27810
L54570 27930
L54570 28160
L54600 28210
L54630 28240
L54690 28270
L54800 28270
L54860 28240
L54890 28210
L54920 28160
L54920 28010
L54890 27960
L54860 27930
L54800 27900
L54690 27900
L54630 27930
L54600 27960
L54570 28010
" />
</g>
<g style="fill:#840000; fill-opacity:0.0; 
stroke:#840000; stroke-width:100; stroke-opacity:1; 
stroke-linecap:round; stroke-linejoin:round;">
<polyline fill="none;"
points="53500,28000
53800,28540
55260,28540
55260,28000
55260,27460
53800,27460
53500,28000
" /> 
</g>
<g style="fill:#840000; fill-opacity:0.0; 
stroke:#840000; stroke-width:60; stroke-opacity:1; 
stroke-linecap:round; stroke-linejoin:round;">
<path d="M46110 25270
L46110 24670
L46260 24670
L46340 24700
L46400 24760
L46430 24810
L46460 24930
L46460 25010
L46430 25130
L46400 25190
L46340 25240
L46260 25270
L46110 25270
" />
<path d="M47030 25270
L46680 25270
" />
<path d="M46860 25270
L46860 24670
L46800 24760
L46740 24810
L46680 24840
" />
</g>
<g style="fill:#840000; fill-opacity:0.0; 
stroke:#840000; stroke-width:100; stroke-opacity:1; 
stroke-linecap:round; stroke-linejoin:round;">
<polyline fill="none;"
points="47500,25000
47200,24460
45740,24460
45740,25000
45740,25540
47200,25540
47500,25000
" /> 
</g>
<g style="fill:#840000; fill-opacity:0.0; 
stroke:#840000; stroke-width:60; stroke-opacity:1; 
stroke-linecap:round; stroke-linejoin:round;">
<path d="M46110 26270
L46110 25670
L46260 25670
L46340 25700
L46400 25760
L46430 25810
L46460 25930
L46460 26010
L46430 26130
L46400 26190
L46340 26240
L46260 26270
L46110 26270
" />
<path d="M46660 25670
L47030 25670
L46830 25900
L46910 25900
L46970 25930
L47000 25960
L47030 26010
L47030 26160
L47000 26210
L46970 26240
L46910 26270
L46740 26270
L46680 26240
L46660 26210
" />
</g>
<g style="fill:#840000; fill-opacity:0.0; 
stroke:#840000; stroke-width:100; stroke-opacity:1; 
stroke-linecap:round; stroke-linejoin:round;">
<polyline fill="none;"
points="47500,26000
47200,25460
45740,25460
45740,26000
45740,26540
47200,26540
47500,26000
" /> 
</g>
<g style="fill:#840000; fill-opacity:0.0; 
stroke:#840000; stroke-width:60; stroke-opacity:1; 
stroke-linecap:round; stroke-linejoin:round;">
<path d="M46110 27270
L46110 26670
L46260 26670
L46340 26700
L46400 26760
L46430 26810
L46460 26930
L46460 27010
L46430 27130
L46400 27190
L46340 27240
L46260 27270
L46110 27270
" />
<path d="M47000 26670
L46710 26670
L46680 26960
L46710 26930
L46770 26900
L46910 26900
L46970 26930
L47000 26960
L47030 27010
L47030 27160
L47000 27210
L46970 27240
L46910 27270
L46770 27270
L46710 27240
L46680 27210
" />
</g>
<g style="fill:#840000; fill-opacity:0.0; 
stroke:#840000; stroke-width:100; stroke-opacity:1; 
stroke-linecap:round; stroke-linejoin:round;">
<polyline fill="none;"
points="47500,27000
47200,26460
45740,26460
45740,27000
45740,27540
47200,27540
47500,27000
" /> 
</g>
<g style="fill:#840000; fill-opacity:0.0; 
stroke:#840000; stroke-width:60; stroke-opacity:1; 
stroke-linecap:round; stroke-linejoin:round;">
<path d="M46110 28270
L46110 27670
L46260 27670
L46340 27700
L46400 27760
L46430 27810
L46460 27930
L46460 28010
L46430 28130
L46400 28190
L46340 28240
L46260 28270
L46110 28270
" />
<path d="M46660 27670
L47060 27670
L46800 28270
" />
</g>
<g style="fill:#840000; fill-opacity:0.0; 
stroke:#840000; stroke-width:100; stroke-opacity:1; 
stroke-linecap:round; stroke-linejoin:round;">
<polyline fill="none;"
points="47500,28000
47200,27460
45740,27460
45740,28000
45740,28540
47200,28540
47500,28000
" /> 
</g>
<g style="fill:#840000; fill-opacity:0.0; 
stroke:#840000; stroke-width:0; stroke-opacity:1; 
stroke-linecap:round; stroke-linejoin:round;">
</g>
<g style="fill:#840000; fill-opacity:0.0; 
stroke:#840000; stroke-width:60; stroke-opacity:1; 
stroke-linecap:round; stroke-linejoin:round;">
<path d="M48500 44000
L48500 44000
" />
<polyline fill="none;"
points="48500,44000
48500,43500
47750,43000
48500,42500
49250,43000
48500,43500
" /> 
</g>
<g style="fill:#008484; fill-opacity:0.0; 
stroke:#008484; stroke-width:50; stroke-opacity:1; 
stroke-linecap:round; stroke-linejoin:round;">
<path d="M47460 42320
L47460 42020
L47580 42020
L47600 42030
L47620 42040
L47630 42070
L47630 42120
L47620 42140
L47600 42160
L47580 42170
L47460 42170
" />
<path d="M47730 42020
L47800 42320
L47860 42100
L47920 42320
L47990 42020
" />
<path d="M48270 42320
L48170 42170
" />
<path d="M48100 42320
L48100 42020
L48220 42020
L48240 42030
L48260 42040
L48270 42070
L48270 42120
L48260 42140
L48240 42160
L48220 42170
L48100 42170
" />
<path d="M48330 42340
L48560 42340
" />
<path d="M48730 42160
L48630 42160
" />
<path d="M48630 42320
L48630 42020
L48770 42020
" />
<path d="M49030 42320
L48890 42320
L48890 42020
" />
<path d="M49120 42230
L49260 42230
" />
<path d="M49090 42320
L49190 42020
L49290 42320
" />
<path d="M49550 42030
L49520 42020
L49480 42020
L49430 42030
L49410 42060
L49390 42090
L49380 42140
L49380 42190
L49390 42240
L49410 42270
L49430 42300
L49480 42320
L49510 42320
L49550 42300
L49560 42290
L49560 42190
L49510 42190
" />
</g>
<g style="fill:#008484; fill-opacity:0.0; 
stroke:#008484; stroke-width:0; stroke-opacity:1; 
stroke-linecap:round; stroke-linejoin:round;">
</g>
<g style="fill:#840000; fill-opacity:0.0; 
stroke:#840000; stroke-width:60; stroke-opacity:1; 
stroke-linecap:round; stroke-linejoin:round;">
<path d="M52500 44000
L52500 44000
" />
<polyline fill="none;"
points="52500,44000
52500,43500
51750,43000
52500,42500
53250,43000
52500,43500
" /> 
</g>
<g style="fill:#008484; fill-opacity:0.0; 
stroke:#008484; stroke-width:50; stroke-opacity:1; 
stroke-linecap:round; stroke-linejoin:round;">
<path d="M51460 42320
L51460 42020
L51580 42020
L51600 42030
L51620 42040
L51630 42070
L51630 42120
L51620 42140
L51600 42160
L51580 42170
L51460 42170
" />
<path d="M51730 42020
L51800 42320
L51860 42100
L51920 42320
L51990 42020
" />
<path d="M52270 42320
L52170 42170
" />
<path d="M52100 42320
L52100 42020
L52220 42020
L52240 42030
L52260 42040
L52270 42070
L52270 42120
L52260 42140
L52240 42160
L52220 42170
L52100 42170
" />
<path d="M52330 42340
L52560 42340
" />
<path d="M52730 42160
L52630 42160
" />
<path d="M52630 42320
L52630 42020
L52770 42020
" />
<path d="M53030 42320
L52890 42320
L52890 42020
" />
<path d="M53120 42230
L53260 42230
" />
<path d="M53090 42320
L53190 42020
L53290 42320
" />
<path d="M53550 42030
L53520 42020
L53480 42020
L53430 42030
L53410 42060
L53390 42090
L53380 42140
L53380 42190
L53390 42240
L53410 42270
L53430 42300
L53480 42320
L53510 42320
L53550 42300
L53560 42290
L53560 42190
L53510 42190
" />
</g>
<g style="fill:#008484; fill-opacity:0.0; 
stroke:#008484; stroke-width:60; stroke-opacity:1; 
stroke-linecap:round; stroke-linejoin:round;">
</g>
<g style="fill:#840000; fill-opacity:0.0; 
stroke:#840000; stroke-width:60; stroke-opacity:1; 
stroke-linecap:round; stroke-linejoin:round;">
<path d="M48200 45730
L48170 45790
L48170 45880
L48200 45960
L48260 46020
L48310 46050
L48430 46080
L48510 46080
L48630 46050
L48690 46020
L48740 45960
L48770 45880
L48770 45820
L48740 45730
L48710 45700
L48510 45700
L48510 45820
" />
<path d="M48770 45450
L48170 45450
L48770 45100
L48170 45100
" />
<path d="M48770 44820
L48170 44820
L48170 44670
L48200 44590
L48260 44530
L48310 44500
L48430 44470
L48510 44470
L48630 44500
L48690 44530
L48740 44590
L48770 44670
L48770 44820
" />
</g>
<g style="fill:#840000; fill-opacity:0.0; 
stroke:#840000; stroke-width:100; stroke-opacity:1; 
stroke-linecap:round; stroke-linejoin:round;">
<polyline fill="none;"
points="48500,44000
47960,44300
47960,46420
48500,46420
49040,46420
49040,44300
48500,44000
" /> 
</g>
<g style="fill:#840000; fill-opacity:0.0; 
stroke:#840000; stroke-width:60; stroke-opacity:1; 
stroke-linecap:round; stroke-linejoin:round;">
<path d="M52170 46010
L52770 45810
L52170 45610
" />
<path d="M52710 45070
L52740 45100
L52770 45190
L52770 45250
L52740 45330
L52690 45390
L52630 45420
L52510 45450
L52430 45450
L52310 45420
L52260 45390
L52200 45330
L52170 45250
L52170 45190
L52200 45100
L52230 45070
" />
<path d="M52710 44470
L52740 44500
L52770 44590
L52770 44650
L52740 44730
L52690 44790
L52630 44820
L52510 44850
L52430 44850
L52310 44820
L52260 44790
L52200 44730
L52170 44650
L52170 44590
L52200 44500
L52230 44470
" />
</g>
<g style="fill:#840000; fill-opacity:0.0; 
stroke:#840000; stroke-width:100; stroke-opacity:1; 
stroke-linecap:round; stroke-linejoin:round;">
<polyline fill="none;"
points="52500,44000
51960,44300
51960,46300
52500,46300
53040,46300
53040,44300
52500,44000
" /> 
</g>
<g style="fill:#840000; fill-opacity:0.0; 
stroke:#840000; stroke-width:0; stroke-opacity:1; 
stroke-linecap:round; stroke-linejoin:round;">
</g>
<g style="fill:#840000; fill-opacity:0.0; 
stroke:#840000; stroke-width:60; stroke-opacity:1; 
stroke-linecap:round; stroke-linejoin:round;">
<polyline fill="none;"
points="66500,25500
66500,24500
" /> 
<polyline fill="none;"
points="66800,24750
67250,24350
67200,24600
" /> 
<polyline fill="none;"
points="66650,24600
67100,24200
67050,24450
" /> 
</g>
<g style="fill:#840000; fill-opacity:1.0; 
stroke:#840000; stroke-width:60; stroke-opacity:1; 
stroke-linecap:round; stroke-linejoin:round;">
<polyline style="fill-rule:evenodd;"
points="65500,25500
66500,25000
65500,24500
" /> 
</g>
<g style="fill:#840000; fill-opacity:0.0; 
stroke:#840000; stroke-width:60; stroke-opacity:1; 
stroke-linecap:round; stroke-linejoin:round;">
<path d="M66500 25000
L68000 25000
" />
<path d="M67360 24880
L67140 24880
" />
<path d="M67250 24880
L67250 24480
L67210 24540
L67170 24580
L67140 24600
" />
<path d="M65500 25000
L64000 25000
" />
<path d="M64640 24520
L64660 24500
L64690 24480
L64790 24480
L64830 24500
L64850 24520
L64860 24560
L64860 24600
L64850 24650
L64620 24880
L64860 24880
" />
</g>
<g style="fill:#008484; fill-opacity:0.0; 
stroke:#008484; stroke-width:60; stroke-opacity:1; 
stroke-linecap:round; stroke-linejoin:round;">
<path d="M65440 26260
L65200 26260
L65200 25760
" />
<path d="M65600 25990
L65770 25990
" />
<path d="M65840 26260
L65600 26260
L65600 25760
L65840 25760
" />
<path d="M66050 26260
L66050 25760
L66170 25760
L66240 25780
L66290 25830
L66310 25880
L66330 25970
L66330 26040
L66310 26140
L66290 26180
L66240 26230
L66170 26260
L66050 26260
" />
<path d="M66810 26260
L66530 26260
" />
<path d="M66670 26260
L66670 25760
L66620 25830
L66570 25880
L66530 25900
" />
</g>
<g style="fill:#008484; fill-opacity:0.0; 
stroke:#008484; stroke-width:0; stroke-opacity:1; 
stroke-linecap:round; stroke-linejoin:round;">
</g>
<g style="fill:#840000; fill-opacity:0.0; 
stroke:#840000; stroke-width:60; stroke-opacity:1; 
stroke-linecap:round; stroke-linejoin:round;">
<polyline fill="none;"
points="66500,28500
66500,27500
" /> 
<polyline fill="none;"
points="66800,27750
67250,27350
67200,27600
" /> 
<polyline fill="none;"
points="66650,27600
67100,27200
67050,27450
" /> 
</g>
<g style="fill:#840000; fill-opacity:1.0; 
stroke:#840000; stroke-width:60; stroke-opacity:1; 
stroke-linecap:round; stroke-linejoin:round;">
<polyline style="fill-rule:evenodd;"
points="65500,28500
66500,28000
65500,27500
" /> 
</g>
<g style="fill:#840000; fill-opacity:0.0; 
stroke:#840000; stroke-width:60; stroke-opacity:1; 
stroke-linecap:round; stroke-linejoin:round;">
<path d="M66500 28000
L68000 28000
" />
<path d="M67360 27880
L67140 27880
" />
<path d="M67250 27880
L67250 27480
L67210 27540
L67170 27580
L67140 27600
" />
<path d="M65500 28000
L64000 28000
" />
<path d="M64640 27520
L64660 27500
L64690 27480
L64790 27480
L64830 27500
L64850 27520
L64860 27560
L64860 27600
L64850 27650
L64620 27880
L64860 27880
" />
</g>
<g style="fill:#008484; fill-opacity:0.0; 
stroke:#008484; stroke-width:60; stroke-opacity:1; 
stroke-linecap:round; stroke-linejoin:round;">
<path d="M65440 29260
L65200 29260
L65200 28760
" />
<path d="M65600 28990
L65770 28990
" />
<path d="M65840 29260
L65600 29260
L65600 28760
L65840 28760
" />
<path d="M66050 29260
L66050 28760
L66170 28760
L66240 28780
L66290 28830
L66310 28880
L66330 28970
L66330 29040
L66310 29140
L66290 29180
L66240 29230
L66170 29260
L66050 29260
" />
<path d="M66530 28800
L66550 28780
L66600 28760
L66720 28760
L66760 28780
L66790 28800
L66810 28850
L66810 28900
L66790 28970
L66500 29260
L66810 29260
" />
</g>
<g style="fill:#008484; fill-opacity:0.0; 
stroke:#008484; stroke-width:0; stroke-opacity:1; 
stroke-linecap:round; stroke-linejoin:round;">
</g>
<g style="fill:#840000; fill-opacity:0.0; 
stroke:#840000; stroke-width:60; stroke-opacity:1; 
stroke-linecap:round; stroke-linejoin:round;">
<polyline fill="none;"
points="66500,31500
66500,30500
" /> 
<polyline fill="none;"
points="66800,30750
67250,30350
67200,30600
" /> 
<polyline fill="none;"
points="66650,30600
67100,30200
67050,30450
" /> 
</g>
<g style="fill:#840000; fill-opacity:1.0; 
stroke:#840000; stroke-width:60; stroke-opacity:1; 
stroke-linecap:round; stroke-linejoin:round;">
<polyline style="fill-rule:evenodd;"
points="65500,31500
66500,31000
65500,30500
" /> 
</g>
<g style="fill:#840000; fill-opacity:0.0; 
stroke:#840000; stroke-width:60; stroke-opacity:1; 
stroke-linecap:round; stroke-linejoin:round;">
<path d="M66500 31000
L68000 31000
" />
<path d="M67360 30880
L67140 30880
" />
<path d="M67250 30880
L67250 30480
L67210 30540
L67170 30580
L67140 30600
" />
<path d="M65500 31000
L64000 31000
" />
<path d="M64640 30520
L64660 30500
L64690 30480
L64790 30480
L64830 30500
L64850 30520
L64860 30560
L64860 30600
L64850 30650
L64620 30880
L64860 30880
" />
</g>
<g style="fill:#008484; fill-opacity:0.0; 
stroke:#008484; stroke-width:60; stroke-opacity:1; 
stroke-linecap:round; stroke-linejoin:round;">
<path d="M65440 32260
L65200 32260
L65200 31760
" />
<path d="M65600 31990
L65770 31990
" />
<path d="M65840 32260
L65600 32260
L65600 31760
L65840 31760
" />
<path d="M66050 32260
L66050 31760
L66170 31760
L66240 31780
L66290 31830
L66310 31880
L66330 31970
L66330 32040
L66310 32140
L66290 32180
L66240 32230
L66170 32260
L66050 32260
" />
<path d="M66500 31760
L66810 31760
L66640 31950
L66720 31950
L66760 31970
L66790 31990
L66810 32040
L66810 32160
L66790 32210
L66760 32230
L66720 32260
L66570 32260
L66530 32230
L66500 32210
" />
</g>
<g style="fill:#008484; fill-opacity:0.0; 
stroke:#008484; stroke-width:0; stroke-opacity:1; 
stroke-linecap:round; stroke-linejoin:round;">
</g>
<g style="fill:#840000; fill-opacity:0.0; 
stroke:#840000; stroke-width:60; stroke-opacity:1; 
stroke-linecap:round; stroke-linejoin:round;">
<polyline fill="none;"
points="66500,34500
66500,33500
" /> 
<polyline fill="none;"
points="66800,33750
67250,33350
67200,33600
" /> 
<polyline fill="none;"
points="66650,33600
67100,33200
67050,33450
" /> 
</g>
<g style="fill:#840000; fill-opacity:1.0; 
stroke:#840000; stroke-width:60; stroke-opacity:1; 
stroke-linecap:round; stroke-linejoin:round;">
<polyline style="fill-rule:evenodd;"
points="65500,34500
66500,34000
65500,33500
" /> 
</g>
<g style="fill:#840000; fill-opacity:0.0; 
stroke:#840000; stroke-width:60; stroke-opacity:1; 
stroke-linecap:round; stroke-linejoin:round;">
<path d="M66500 34000
L68000 34000
" />
<path d="M67360 33880
L67140 33880
" />
<path d="M67250 33880
L67250 33480
L67210 33540
L67170 33580
L67140 33600
" />
<path d="M65500 34000
L64000 34000
" />
<path d="M64640 33520
L64660 33500
L64690 33480
L64790 33480
L64830 33500
L64850 33520
L64860 33560
L64860 33600
L64850 33650
L64620 33880
L64860 33880
" />
</g>
<g style="fill:#008484; fill-opacity:0.0; 
stroke:#008484; stroke-width:60; stroke-opacity:1; 
stroke-linecap:round; stroke-linejoin:round;">
<path d="M65440 35260
L65200 35260
L65200 34760
" />
<path d="M65600 34990
L65770 34990
" />
<path d="M65840 35260
L65600 35260
L65600 34760
L65840 34760
" />
<path d="M66050 35260
L66050 34760
L66170 34760
L66240 34780
L66290 34830
L66310 34880
L66330 34970
L66330 35040
L66310 35140
L66290 35180
L66240 35230
L66170 35260
L66050 35260
" />
<path d="M66760 34920
L66760 35260
" />
<path d="M66640 34730
L66530 35090
L66830 35090
" />
</g>
<g style="fill:#008484; fill-opacity:0.0; 
stroke:#008484; stroke-width:0; stroke-opacity:1; 
stroke-linecap:round; stroke-linejoin:round;">
</g>
<g style="fill:#840000; fill-opacity:0.0; 
stroke:#840000; stroke-width:100; stroke-opacity:1; 
stroke-linecap:round; stroke-linejoin:round;">
<rect x="70500" y="24600" width="2000" height="800" rx="0" />
</g>
<g style="fill:#840000; fill-opacity:0.0; 
stroke:#840000; stroke-width:60; stroke-opacity:1; 
stroke-linecap:round; stroke-linejoin:round;">
<path d="M72500 25000
L73000 25000
" />
</g>
<g style="fill:#008484; fill-opacity:0.0; 
stroke:#008484; stroke-width:60; stroke-opacity:1; 
stroke-linecap:round; stroke-linejoin:round;">
<path d="M70500 25000
L70000 25000
" />
</g>
<g style="fill:#008484; fill-opacity:0.0; 
stroke:#008484; stroke-width:60; stroke-opacity:1; 
stroke-linecap:round; stroke-linejoin:round;">
<path d="M71410 26000
L71250 25760
" />
<path d="M71130 26000
L71130 25500
L71320 25500
L71370 25520
L71390 25540
L71410 25590
L71410 25660
L71390 25710
L71370 25730
L71320 25760
L71130 25760
" />
<path d="M71890 26000
L71610 26000
" />
<path d="M71750 26000
L71750 25500
L71700 25570
L71650 25620
L71610 25640
" />
<path d="M70850 24700
L71160 24700
L70990 24890
L71070 24890
L71110 24910
L71140 24930
L71160 24980
L71160 25100
L71140 25150
L71110 25170
L71070 25200
L70920 25200
L70880 25170
L70850 25150
" />
<path d="M71330 24700
L71640 24700
L71470 24890
L71550 24890
L71590 24910
L71620 24930
L71640 24980
L71640 25100
L71620 25150
L71590 25170
L71550 25200
L71400 25200
L71360 25170
L71330 25150
" />
<path d="M71950 24700
L72000 24700
L72050 24720
L72070 24740
L72100 24790
L72120 24890
L72120 25010
L72100 25100
L72070 25150
L72050 25170
L72000 25200
L71950 25200
L71910 25170
L71880 25150
L71860 25100
L71840 25010
L71840 24890
L71860 24790
L71880 24740
L71910 24720
L71950 24700
" />
</g>
<g style="fill:#008484; fill-opacity:0.0; 
stroke:#008484; stroke-width:0; stroke-opacity:1; 
stroke-linecap:round; stroke-linejoin:round;">
</g>
<g style="fill:#840000; fill-opacity:0.0; 
stroke:#840000; stroke-width:100; stroke-opacity:1; 
stroke-linecap:round; stroke-linejoin:round;">
<rect x="70500" y="27600" width="2000" height="800" rx="0" />
</g>
<g style="fill:#840000; fill-opacity:0.0; 
stroke:#840000; stroke-width:60; stroke-opacity:1; 
stroke-linecap:round; stroke-linejoin:round;">
<path d="M72500 28000
L73000 28000
" />
</g>
<g style="fill:#008484; fill-opacity:0.0; 
stroke:#008484; stroke-width:60; stroke-opacity:1; 
stroke-linecap:round; stroke-linejoin:round;">
<path d="M70500 28000
L70000 28000
" />
</g>
<g style="fill:#008484; fill-opacity:0.0; 
stroke:#008484; stroke-width:60; stroke-opacity:1; 
stroke-linecap:round; stroke-linejoin:round;">
<path d="M71410 29000
L71250 28760
" />
<path d="M71130 29000
L71130 28500
L71320 28500
L71370 28520
L71390 28540
L71410 28590
L71410 28660
L71390 28710
L71370 28730
L71320 28760
L71130 28760
" />
<path d="M71610 28540
L71630 28520
L71680 28500
L71800 28500
L71840 28520
L71870 28540
L71890 28590
L71890 28640
L71870 28710
L71580 29000
L71890 29000
" />
<path d="M70850 27700
L71160 27700
L70990 27890
L71070 27890
L71110 27910
L71140 27930
L71160 27980
L71160 28100
L71140 28150
L71110 28170
L71070 28200
L70920 28200
L70880 28170
L70850 28150
" />
<path d="M71330 27700
L71640 27700
L71470 27890
L71550 27890
L71590 27910
L71620 27930
L71640 27980
L71640 28100
L71620 28150
L71590 28170
L71550 28200
L71400 28200
L71360 28170
L71330 28150
" />
<path d="M71950 27700
L72000 27700
L72050 27720
L72070 27740
L72100 27790
L72120 27890
L72120 28010
L72100 28100
L72070 28150
L72050 28170
L72000 28200
L71950 28200
L71910 28170
L71880 28150
L71860 28100
L71840 28010
L71840 27890
L71860 27790
L71880 27740
L71910 27720
L71950 27700
" />
</g>
<g style="fill:#008484; fill-opacity:0.0; 
stroke:#008484; stroke-width:0; stroke-opacity:1; 
stroke-linecap:round; stroke-linejoin:round;">
</g>
<g style="fill:#840000; fill-opacity:0.0; 
stroke:#840000; stroke-width:100; stroke-opacity:1; 
stroke-linecap:round; stroke-linejoin:round;">
<rect x="70500" y="30600" width="2000" height="800" rx="0" />
</g>
<g style="fill:#840000; fill-opacity:0.0; 
stroke:#840000; stroke-width:60; stroke-opacity:1; 
stroke-linecap:round; stroke-linejoin:round;">
<path d="M72500 31000
L73000 31000
" />
</g>
<g style="fill:#008484; fill-opacity:0.0; 
stroke:#008484; stroke-width:60; stroke-opacity:1; 
stroke-linecap:round; stroke-linejoin:round;">
<path d="M70500 31000
L70000 31000
" />
</g>
<g style="fill:#008484; fill-opacity:0.0; 
stroke:#008484; stroke-width:60; stroke-opacity:1; 
stroke-linecap:round; stroke-linejoin:round;">
<path d="M71410 32000
L71250 31760
" />
<path d="M71130 32000
L71130 31500
L71320 31500
L71370 31520
L71390 31540
L71410 31590
L71410 31660
L71390 31710
L71370 31730
L71320 31760
L71130 31760
" />
<path d="M71580 31500
L71890 31500
L71720 31690
L71800 31690
L71840 31710
L71870 31730
L71890 31780
L71890 31900
L71870 31950
L71840 31970
L71800 32000
L71650 32000
L71610 31970
L71580 31950
" />
<path d="M70850 30700
L71160 30700
L70990 30890
L71070 30890
L71110 30910
L71140 30930
L71160 30980
L71160 31100
L71140 31150
L71110 31170
L71070 31200
L70920 31200
L70880 31170
L70850 31150
" />
<path d="M71330 30700
L71640 30700
L71470 30890
L71550 30890
L71590 30910
L71620 30930
L71640 30980
L71640 31100
L71620 31150
L71590 31170
L71550 31200
L71400 31200
L71360 31170
L71330 31150
" />
<path d="M71950 30700
L72000 30700
L72050 30720
L72070 30740
L72100 30790
L72120 30890
L72120 31010
L72100 31100
L72070 31150
L72050 31170
L72000 31200
L71950 31200
L71910 31170
L71880 31150
L71860 31100
L71840 31010
L71840 30890
L71860 30790
L71880 30740
L71910 30720
L71950 30700
" />
</g>
<g style="fill:#008484; fill-opacity:0.0; 
stroke:#008484; stroke-width:0; stroke-opacity:1; 
stroke-linecap:round; stroke-linejoin:round;">
</g>
<g style="fill:#840000; fill-opacity:0.0; 
stroke:#840000; stroke-width:100; stroke-opacity:1; 
stroke-linecap:round; stroke-linejoin:round;">
<rect x="70500" y="33600" width="2000" height="800" rx="0" />
</g>
<g style="fill:#840000; fill-opacity:0.0; 
stroke:#840000; stroke-width:60; stroke-opacity:1; 
stroke-linecap:round; stroke-linejoin:round;">
<path d="M72500 34000
L73000 34000
" />
</g>
<g style="fill:#008484; fill-opacity:0.0; 
stroke:#008484; stroke-width:60; stroke-opacity:1; 
stroke-linecap:round; stroke-linejoin:round;">
<path d="M70500 34000
L70000 34000
" />
</g>
<g style="fill:#008484; fill-opacity:0.0; 
stroke:#008484; stroke-width:60; stroke-opacity:1; 
stroke-linecap:round; stroke-linejoin:round;">
<path d="M71410 35000
L71250 34760
" />
<path d="M71130 35000
L71130 34500
L71320 34500
L71370 34520
L71390 34540
L71410 34590
L71410 34660
L71390 34710
L71370 34730
L71320 34760
L71130 34760
" />
<path d="M71840 34660
L71840 35000
" />
<path d="M71720 34470
L71610 34830
L71910 34830
" />
<path d="M70850 33700
L71160 33700
L70990 33890
L71070 33890
L71110 33910
L71140 33930
L71160 33980
L71160 34100
L71140 34150
L71110 34170
L71070 34200
L70920 34200
L70880 34170
L70850 34150
" />
<path d="M71330 33700
L71640 33700
L71470 33890
L71550 33890
L71590 33910
L71620 33930
L71640 33980
L71640 34100
L71620 34150
L71590 34170
L71550 34200
L71400 34200
L71360 34170
L71330 34150
" />
<path d="M71950 33700
L72000 33700
L72050 33720
L72070 33740
L72100 33790
L72120 33890
L72120 34010
L72100 34100
L72070 34150
L72050 34170
L72000 34200
L71950 34200
L71910 34170
L71880 34150
L71860 34100
L71840 34010
L71840 33890
L71860 33790
L71880 33740
L71910 33720
L71950 33700
" />
</g>
<g style="fill:#840000; fill-opacity:0.0; 
stroke:#840000; stroke-width:60; stroke-opacity:1; 
stroke-linecap:round; stroke-linejoin:round;">
<path d="M62610 25270
L62610 24670
L62760 24670
L62840 24700
L62900 24760
L62930 24810
L62960 24930
L62960 25010
L62930 25130
L62900 25190
L62840 25240
L62760 25270
L62610 25270
" />
<path d="M63330 24670
L63380 24670
L63440 24700
L63470 24730
L63500 24790
L63530 24900
L63530 25040
L63500 25160
L63470 25210
L63440 25240
L63380 25270
L63330 25270
L63270 25240
L63240 25210
L63210 25160
L63180 25040
L63180 24900
L63210 24790
L63240 24730
L63270 24700
L63330 24670
" />
</g>
<g style="fill:#840000; fill-opacity:0.0; 
stroke:#840000; stroke-width:100; stroke-opacity:1; 
stroke-linecap:round; stroke-linejoin:round;">
<polyline fill="none;"
points="64000,25000
63700,24460
62240,24460
62240,25000
62240,25540
63700,25540
64000,25000
" /> 
</g>
<g style="fill:#840000; fill-opacity:0.0; 
stroke:#840000; stroke-width:60; stroke-opacity:1; 
stroke-linecap:round; stroke-linejoin:round;">
<path d="M62610 28270
L62610 27670
L62760 27670
L62840 27700
L62900 27760
L62930 27810
L62960 27930
L62960 28010
L62930 28130
L62900 28190
L62840 28240
L62760 28270
L62610 28270
" />
<path d="M63530 28270
L63180 28270
" />
<path d="M63360 28270
L63360 27670
L63300 27760
L63240 27810
L63180 27840
" />
</g>
<g style="fill:#840000; fill-opacity:0.0; 
stroke:#840000; stroke-width:100; stroke-opacity:1; 
stroke-linecap:round; stroke-linejoin:round;">
<polyline fill="none;"
points="64000,28000
63700,27460
62240,27460
62240,28000
62240,28540
63700,28540
64000,28000
" /> 
</g>
<g style="fill:#840000; fill-opacity:0.0; 
stroke:#840000; stroke-width:60; stroke-opacity:1; 
stroke-linecap:round; stroke-linejoin:round;">
<path d="M62610 31270
L62610 30670
L62760 30670
L62840 30700
L62900 30760
L62930 30810
L62960 30930
L62960 31010
L62930 31130
L62900 31190
L62840 31240
L62760 31270
L62610 31270
" />
<path d="M63180 30730
L63210 30700
L63270 30670
L63410 30670
L63470 30700
L63500 30730
L63530 30790
L63530 30840
L63500 30930
L63160 31270
L63530 31270
" />
</g>
<g style="fill:#840000; fill-opacity:0.0; 
stroke:#840000; stroke-width:100; stroke-opacity:1; 
stroke-linecap:round; stroke-linejoin:round;">
<polyline fill="none;"
points="64000,31000
63700,30460
62240,30460
62240,31000
62240,31540
63700,31540
64000,31000
" /> 
</g>
<g style="fill:#840000; fill-opacity:0.0; 
stroke:#840000; stroke-width:60; stroke-opacity:1; 
stroke-linecap:round; stroke-linejoin:round;">
<path d="M62610 34270
L62610 33670
L62760 33670
L62840 33700
L62900 33760
L62930 33810
L62960 33930
L62960 34010
L62930 34130
L62900 34190
L62840 34240
L62760 34270
L62610 34270
" />
<path d="M63160 33670
L63530 33670
L63330 33900
L63410 33900
L63470 33930
L63500 33960
L63530 34010
L63530 34160
L63500 34210
L63470 34240
L63410 34270
L63240 34270
L63180 34240
L63160 34210
" />
</g>
<g style="fill:#840000; fill-opacity:0.0; 
stroke:#840000; stroke-width:100; stroke-opacity:1; 
stroke-linecap:round; stroke-linejoin:round;">
<polyline fill="none;"
points="64000,34000
63700,33460
62240,33460
62240,34000
62240,34540
63700,34540
64000,34000
" /> 
</g>
<g style="fill:#840000; fill-opacity:0.0; 
stroke:#840000; stroke-width:60; stroke-opacity:1; 
stroke-linecap:round; stroke-linejoin:round;">
<path d="M75820 29200
L75760 29170
L75670 29170
L75590 29200
L75530 29260
L75500 29310
L75470 29430
L75470 29510
L75500 29630
L75530 29690
L75590 29740
L75670 29770
L75730 29770
L75820 29740
L75850 29710
L75850 29510
L75730 29510
" />
<path d="M76100 29770
L76100 29170
L76450 29770
L76450 29170
" />
<path d="M76730 29770
L76730 29170
L76880 29170
L76960 29200
L77020 29260
L77050 29310
L77080 29430
L77080 29510
L77050 29630
L77020 29690
L76960 29740
L76880 29770
L76730 29770
" />
</g>
<g style="fill:#840000; fill-opacity:0.0; 
stroke:#840000; stroke-width:100; stroke-opacity:1; 
stroke-linecap:round; stroke-linejoin:round;">
<polyline fill="none;"
points="75000,29500
75300,30040
77420,30040
77420,29500
77420,28960
75300,28960
75000,29500
" /> 
</g>
<g style="fill:#840000; fill-opacity:0.0; 
stroke:#840000; stroke-width:60; stroke-opacity:1; 
stroke-linecap:round; stroke-linejoin:round;">
</g>
<g style="fill:#008400; fill-opacity:0.0; 
stroke:#008400; stroke-width:60; stroke-opacity:1; 
stroke-linecap:round; stroke-linejoin:round;">
<path d="M68000 25000
L70000 25000
" />
<path d="M68000 28000
L70000 28000
" />
<path d="M68000 31000
L70000 31000
" />
<path d="M68000 34000
L70000 34000
" />
<path d="M73000 25000
L74000 25000
" />
<path d="M74000 25000
L74000 34000
" />
<path d="M74000 34000
L73000 34000
" />
<path d="M73000 31000
L74000 31000
" />
</g>
<g style="fill:#008400; fill-opacity:0.0; 
stroke:#008400; stroke-width:0; stroke-opacity:1; 
stroke-linecap:round; stroke-linejoin:round;">
</g>
<g style="fill:#008400; fill-opacity:1.0; 
stroke:#008400; stroke-width:100; stroke-opacity:1; 
stroke-linecap:round; stroke-linejoin:round;">
<circle cx="74000" cy="31000" r="200" /> 
</g>
<g style="fill:#008400; fill-opacity:1.0; 
stroke:#008400; stroke-width:60; stroke-opacity:1; 
stroke-linecap:round; stroke-linejoin:round;">
</g>
<g style="fill:#008400; fill-opacity:0.0; 
stroke:#008400; stroke-width:60; stroke-opacity:1; 
stroke-linecap:round; stroke-linejoin:round;">
<path d="M73000 28000
L74000 28000
" />
</g>
<g style="fill:#008400; fill-opacity:0.0; 
stroke:#008400; stroke-width:0; stroke-opacity:1; 
stroke-linecap:round; stroke-linejoin:round;">
</g>
<g style="fill:#008400; fill-opacity:1.0; 
stroke:#008400; stroke-width:100; stroke-opacity:1; 
stroke-linecap:round; stroke-linejoin:round;">
<circle cx="74000" cy="28000" r="200" /> 
</g>
<g style="fill:#008400; fill-opacity:1.0; 
stroke:#008400; stroke-width:60; stroke-opacity:1; 
stroke-linecap:round; stroke-linejoin:round;">
</g>
<g style="fill:#008400; fill-opacity:0.0; 
stroke:#008400; stroke-width:60; stroke-opacity:1; 
stroke-linecap:round; stroke-linejoin:round;">
<path d="M74000 29500
L75000 29500
" />
</g>
<g style="fill:#008400; fill-opacity:0.0; 
stroke:#008400; stroke-width:0; stroke-opacity:1; 
stroke-linecap:round; stroke-linejoin:round;">
</g>
<g style="fill:#008400; fill-opacity:1.0; 
stroke:#008400; stroke-width:100; stroke-opacity:1; 
stroke-linecap:round; stroke-linejoin:round;">
<circle cx="74000" cy="29500" r="200" /> 
</g> 
</svg>
